<svg width="20" height="20" viewBox="0 0 20 20" fill="none" xmlns="http://www.w3.org/2000/svg">
<path d="M16.0433 11.4562C16.3483 11.7612 16.367 12.2438 16.1003 12.5711L16.0433 12.6346L10.5892 18.0895C10.5836 18.0951 10.577 18.1004 10.5713 18.1058C10.5636 18.1131 10.5557 18.12 10.5477 18.127C10.5347 18.1383 10.5221 18.1499 10.5086 18.1603C10.5031 18.1646 10.4972 18.1684 10.4916 18.1725C10.4556 18.1989 10.4181 18.2218 10.3792 18.2417C10.3664 18.2483 10.3534 18.2545 10.3402 18.2604C10.1423 18.349 9.91782 18.3558 9.71519 18.2824C9.68273 18.2706 9.65121 18.2573 9.62078 18.2417C9.56101 18.2112 9.50478 18.1728 9.45233 18.127C9.44348 18.1192 9.43479 18.1114 9.42629 18.1034C9.42117 18.0985 9.41503 18.0945 9.41001 18.0895L3.95591 12.6346C3.63056 12.3092 3.6305 11.7816 3.95591 11.4562C4.28134 11.1311 4.80896 11.131 5.13429 11.4562L9.16587 15.4862V2.50033C9.16587 2.04016 9.53906 1.66711 9.9992 1.66699C10.4594 1.66699 10.8325 2.04009 10.8325 2.50033V15.4878L14.8649 11.4562L14.9284 11.3993C15.2557 11.1326 15.7383 11.1513 16.0433 11.4562Z" fill="#1A1A1A"/>
</svg>
