<svg width="362" height="667" viewBox="0 0 362 667" fill="none" xmlns="http://www.w3.org/2000/svg">
<path d="M217.03 4.7299L237.51 46.4199L281.55 31.9999L284.61 78.4499L330.73 82.0699L315.88 126.2L357.07 147.31L326.58 182.41L356.57 217.79L315.07 238.51L329.29 282.78L283.12 285.97L279.4 332.39L235.57 317.56L214.49 359.06L179.68 328.48L144.43 358.74L123.94 317.05L79.9099 331.47L76.8599 285.02L30.7299 281.4L45.5799 237.27L4.38989 216.16L34.8799 181.06L4.88989 145.68L46.3799 124.95L32.1699 80.6799L78.3399 77.4899L82.0599 31.0699L125.89 45.8999L146.97 4.3999L181.78 34.9899L217.03 4.7299Z" stroke="#231F20" stroke-width="8" stroke-miterlimit="10" stroke-linejoin="round"/>
<path d="M180.73 334.98C265.511 334.98 334.24 266.251 334.24 181.47C334.24 96.6887 265.511 27.96 180.73 27.96C95.9487 27.96 27.22 96.6887 27.22 181.47C27.22 266.251 95.9487 334.98 180.73 334.98Z" fill="white" stroke="#231F20" stroke-width="8" stroke-miterlimit="10"/>
<path d="M112.05 125.03C114.54 112.759 118.621 100.865 124.19 89.6499C133.918 91.5796 143.419 94.5154 152.54 98.4099" fill="white"/>
<path d="M112.05 125.03C114.54 112.759 118.621 100.865 124.19 89.6499C133.918 91.5796 143.419 94.5154 152.54 98.4099" stroke="#231F20" stroke-width="8" stroke-miterlimit="10" stroke-linejoin="round"/>
<path d="M250.31 125.03C247.82 112.759 243.739 100.865 238.17 89.6499C228.445 91.5789 218.947 94.5148 209.83 98.4099" fill="white"/>
<path d="M250.31 125.03C247.82 112.759 243.739 100.865 238.17 89.6499C228.445 91.5789 218.947 94.5148 209.83 98.4099" stroke="#231F20" stroke-width="8" stroke-miterlimit="10" stroke-linejoin="round"/>
<path d="M129.69 153.72C129.69 199.47 180.69 236.55 180.69 236.55C180.69 236.55 231.69 199.47 231.69 153.72C231.69 107.97 180.69 70.8901 180.69 70.8901C180.69 70.8901 129.69 107.98 129.69 153.72Z" stroke="#231F20" stroke-width="8" stroke-miterlimit="10" stroke-linejoin="round"/>
<path d="M274.78 185.55C282.13 156.77 272.95 125.05 272.95 125.05C272.95 125.05 218.37 123.17 194.07 154.37C169.77 185.57 184.94 238.02 184.94 238.02C194.796 238.114 204.635 237.189 214.3 235.26" fill="white"/>
<path d="M274.78 185.55C282.13 156.77 272.95 125.05 272.95 125.05C272.95 125.05 218.37 123.17 194.07 154.37C169.77 185.57 184.94 238.02 184.94 238.02C194.796 238.114 204.635 237.189 214.3 235.26" stroke="#231F20" stroke-width="8" stroke-miterlimit="10" stroke-linejoin="round"/>
<path d="M86.89 186.38C79.15 157.38 88.5 125.05 88.5 125.05C88.5 125.05 143.08 123.17 167.38 154.37C191.68 185.57 176.51 238.02 176.51 238.02C165.263 238.12 154.042 236.898 143.08 234.38" fill="white"/>
<path d="M86.89 186.38C79.15 157.38 88.5 125.05 88.5 125.05C88.5 125.05 143.08 123.17 167.38 154.37C191.68 185.57 176.51 238.02 176.51 238.02C165.263 238.12 154.042 236.898 143.08 234.38" stroke="#231F20" stroke-width="8" stroke-miterlimit="10" stroke-linejoin="round"/>
<path d="M129.69 195.7C129.69 241.44 180.69 278.53 180.69 278.53C180.69 278.53 231.69 241.44 231.69 195.7C231.69 149.96 180.69 112.87 180.69 112.87C180.69 112.87 129.69 149.96 129.69 195.7Z" fill="white" stroke="#231F20" stroke-width="8" stroke-miterlimit="10" stroke-linejoin="round"/>
<path d="M206.61 189.48C172.11 208.81 165.74 263.05 165.74 263.05C165.74 263.05 215.32 285.95 249.82 266.62C284.32 247.29 290.69 193.06 290.69 193.06C290.69 193.06 241.11 170.16 206.61 189.48Z" stroke="#231F20" stroke-width="8" stroke-miterlimit="10" stroke-linejoin="round"/>
<path d="M155.84 189.48C190.34 208.81 196.71 263.05 196.71 263.05C196.71 263.05 147.13 285.95 112.63 266.62C78.13 247.29 71.77 193.06 71.77 193.06C71.77 193.06 121.34 170.16 155.84 189.48Z" stroke="#231F20" stroke-width="8" stroke-miterlimit="10" stroke-linejoin="round"/>
<path d="M181 271L180 381" stroke="#231F20" stroke-width="8" stroke-miterlimit="10" stroke-linecap="round" stroke-linejoin="round"/>
<path d="M180.73 318.5C255.968 318.5 316.96 257.508 316.96 182.27C316.96 107.032 255.968 46.04 180.73 46.04C105.492 46.04 44.5 107.032 44.5 182.27C44.5 257.508 105.492 318.5 180.73 318.5Z" stroke="#231F20" stroke-width="8" stroke-miterlimit="10"/>
<path d="M38.179 413.855C37.2695 413.855 36.8561 414.351 36.8561 415.178V450.069H36.36L23.7924 414.93C23.5443 414.185 23.0482 413.855 22.3041 413.855H14.1186C13.2918 413.855 12.7957 414.351 12.7957 415.178V478.677C12.7957 479.504 13.2918 480 14.1186 480H22.7175C23.627 480 24.0404 479.504 24.0404 478.677V443.62H24.4538L37.1041 478.925C37.3521 479.669 37.8482 480 38.5924 480H46.7778C47.6047 480 48.1008 479.504 48.1008 478.677V415.178C48.1008 414.351 47.6047 413.855 46.7778 413.855H38.179ZM56.3973 468.094C56.3973 475.866 60.5314 480 68.3035 480H77.5638C85.3359 480 89.47 475.866 89.47 468.094V425.761C89.47 417.989 85.3359 413.855 77.5638 413.855H68.3035C60.5314 413.855 56.3973 417.989 56.3973 425.761V468.094ZM70.7013 469.334C68.5515 469.334 67.394 468.259 67.394 466.027V427.828C67.394 425.678 68.5515 424.521 70.7013 424.521H75.4968C77.6465 424.521 78.804 425.678 78.804 427.828V466.027C78.804 468.259 77.6465 469.334 75.4968 469.334H70.7013ZM94.9044 413.855C94.0775 413.855 93.5814 414.351 93.5814 415.178V423.446C93.5814 424.273 94.0775 424.769 94.9044 424.769H104.495V478.677C104.495 479.587 104.992 480 105.818 480H114.417C115.327 480 115.74 479.587 115.74 478.677V424.769H125.331C126.241 424.769 126.654 424.273 126.654 423.446V415.178C126.654 414.351 126.241 413.855 125.331 413.855H94.9044ZM131.651 468.094C131.651 475.866 135.785 480 143.557 480H152.817C160.589 480 164.723 475.866 164.723 468.094V425.761C164.723 417.989 160.589 413.855 152.817 413.855H143.557C135.785 413.855 131.651 417.989 131.651 425.761V468.094ZM145.954 469.334C143.805 469.334 142.647 468.259 142.647 466.027V427.828C142.647 425.678 143.805 424.521 145.954 424.521H150.75C152.9 424.521 154.057 425.678 154.057 427.828V466.027C154.057 468.259 152.9 469.334 150.75 469.334H145.954ZM206.973 425.761C206.973 417.989 202.839 413.855 195.067 413.855H174.314C173.487 413.855 172.991 414.351 172.991 415.178V478.677C172.991 479.504 173.487 480 174.314 480H182.913C183.74 480 184.236 479.504 184.236 478.677V457.841H189.941L195.481 478.842C195.646 479.587 196.059 480 196.886 480H205.485C206.395 480 206.891 479.504 206.643 478.512L200.938 456.849C204.906 455.113 206.973 451.475 206.973 445.935V425.761ZM184.236 446.927V424.769H192.421C194.571 424.769 195.729 425.926 195.729 428.076V443.62C195.729 445.77 194.571 446.927 192.421 446.927H184.236ZM216.543 413.855C215.634 413.855 215.22 414.351 215.22 415.178V478.677C215.22 479.504 215.634 480 216.543 480H225.142C225.969 480 226.465 479.504 226.465 478.677V415.178C226.465 414.351 225.969 413.855 225.142 413.855H216.543ZM234.76 468.094C234.76 475.866 238.894 480 246.666 480H255.927C263.699 480 267.833 475.866 267.833 468.094V425.761C267.833 417.989 263.699 413.855 255.927 413.855H246.666C238.894 413.855 234.76 417.989 234.76 425.761V468.094ZM249.064 469.334C246.914 469.334 245.757 468.259 245.757 466.027V427.828C245.757 425.678 246.914 424.521 249.064 424.521H253.86C256.009 424.521 257.167 425.678 257.167 427.828V466.027C257.167 468.259 256.009 469.334 253.86 469.334H249.064ZM299.913 413.855C299.004 413.855 298.26 414.599 298.26 415.508V465.779C298.26 468.011 297.102 469.086 294.953 469.086H290.653C288.503 469.086 287.346 468.011 287.346 465.779V415.508C287.346 414.599 286.602 413.855 285.692 413.855H277.755C276.845 413.855 276.101 414.599 276.101 415.508V468.094C276.101 475.866 280.235 480 288.007 480H297.268C305.04 480 309.174 475.866 309.174 468.094V415.508C309.174 414.599 308.43 413.855 307.52 413.855H299.913ZM329.348 413.855C321.659 413.855 317.442 417.989 317.442 425.761V445.274C317.442 446.845 318.186 447.837 319.674 448.333L339.27 454.782V465.779C339.27 468.011 338.112 469.086 335.963 469.086H331.994C329.927 469.086 328.687 468.011 328.687 465.779V459.412C328.687 458.503 328.273 458.089 327.364 458.089H318.765C317.938 458.089 317.442 458.503 317.442 459.412V468.094C317.442 475.866 321.659 480 329.348 480H338.608C346.38 480 350.515 475.866 350.515 468.094V448.994C350.515 447.423 349.77 446.514 348.365 445.935L328.687 439.486V428.076C328.687 425.926 329.927 424.769 331.994 424.769H335.963C338.195 424.769 339.27 425.926 339.27 428.076V434.525C339.27 435.352 339.766 435.848 340.593 435.848H349.192C350.101 435.848 350.515 435.352 350.515 434.525V425.761C350.515 417.989 346.38 413.855 338.608 413.855H329.348Z" fill="#231F20"/>
<path d="M80.1656 521.908C80.1656 506.033 71.5526 497.589 55.6778 497.589H15.1462C13.4574 497.589 12.4441 498.433 12.4441 500.291V629.992C12.4441 631.681 13.4574 632.694 15.1462 632.694H55.6778C71.5526 632.694 80.1656 624.25 80.1656 608.375V577.301C80.1656 571.052 75.6058 566.323 69.5261 565.31V564.972C75.6058 563.959 80.1656 559.23 80.1656 552.982V521.908ZM57.7043 547.409C57.7043 551.631 55.34 553.995 50.9491 553.995H35.5809V519.881H50.9491C55.5089 519.881 57.7043 522.245 57.7043 526.636V547.409ZM57.7043 603.646C57.7043 608.206 55.34 610.401 50.9491 610.401H35.5809V576.287H50.9491C55.5089 576.287 57.7043 578.652 57.7043 583.043V603.646ZM100.09 608.375C100.09 624.25 108.534 632.694 124.409 632.694H143.323C159.198 632.694 167.642 624.25 167.642 608.375V521.908C167.642 506.033 159.198 497.589 143.323 497.589H124.409C108.534 497.589 100.09 506.033 100.09 521.908V608.375ZM129.306 610.908C124.915 610.908 122.551 608.713 122.551 604.153V526.13C122.551 521.739 124.915 519.374 129.306 519.374H139.101C143.492 519.374 145.857 521.739 145.857 526.13V604.153C145.857 608.713 143.492 610.908 139.101 610.908H129.306ZM239.417 497.589C237.559 497.589 236.715 498.602 236.715 500.291V571.559H235.702L210.032 499.784C209.525 498.264 208.512 497.589 206.992 497.589H190.272C188.584 497.589 187.57 498.602 187.57 500.291V629.992C187.57 631.681 188.584 632.694 190.272 632.694H207.836C209.694 632.694 210.538 631.681 210.538 629.992V558.386H211.383L237.222 630.498C237.728 632.018 238.741 632.694 240.261 632.694H256.981C258.669 632.694 259.683 631.681 259.683 629.992V500.291C259.683 498.602 258.669 497.589 256.981 497.589H239.417ZM279.669 608.375C279.669 624.25 288.113 632.694 303.988 632.694H326.28C341.986 632.694 350.599 624.25 350.599 608.375V561.426C350.599 559.568 349.586 558.724 347.897 558.724H319.525C317.667 558.724 316.823 559.568 316.823 561.426V578.314C316.823 580.003 317.667 581.016 319.525 581.016H328.307V603.646C328.307 608.206 325.942 610.401 321.551 610.401H309.392C305.001 610.401 302.637 608.206 302.637 603.646V526.636C302.637 522.245 304.832 519.881 309.392 519.881H321.551C325.942 519.881 328.307 522.245 328.307 526.636V539.471C328.307 541.16 329.151 542.173 331.009 542.173H347.897C349.586 542.173 350.599 541.16 350.599 539.471V521.908C350.599 506.033 341.986 497.589 326.28 497.589H303.988C288.113 497.589 279.669 506.033 279.669 521.908V608.375Z" fill="#231F20"/>
</svg>
